<?xml version="1.0" encoding="UTF-8" standalone="no"?>
<!-- Created with Inkscape (http://www.inkscape.org/) -->

<svg
   width="412.63437mm"
   height="235.63853mm"
   viewBox="0 0 412.63436 235.63853"
   version="1.1"
   id="svg5"
   xml:space="preserve"
   inkscape:version="1.2.2 (732a01da63, 2022-12-09)"
   sodipodi:docname="edulogo.svg"
   inkscape:export-filename="edulogo.png"
   inkscape:export-xdpi="6.1555705"
   inkscape:export-ydpi="6.1555705"
   xmlns:inkscape="http://www.inkscape.org/namespaces/inkscape"
   xmlns:sodipodi="http://sodipodi.sourceforge.net/DTD/sodipodi-0.dtd"
   xmlns="http://www.w3.org/2000/svg"
   xmlns:svg="http://www.w3.org/2000/svg"><sodipodi:namedview
     id="namedview7"
     pagecolor="#ffffff"
     bordercolor="#000000"
     borderopacity="0.25"
     inkscape:showpageshadow="2"
     inkscape:pageopacity="0.0"
     inkscape:pagecheckerboard="0"
     inkscape:deskcolor="#d1d1d1"
     inkscape:document-units="mm"
     showgrid="false"
     inkscape:zoom="0.50646226"
     inkscape:cx="767.08578"
     inkscape:cy="427.47509"
     inkscape:window-width="1920"
     inkscape:window-height="991"
     inkscape:window-x="-9"
     inkscape:window-y="-9"
     inkscape:window-maximized="1"
     inkscape:current-layer="layer1" /><defs
     id="defs2" /><g
     inkscape:label="Layer 1"
     inkscape:groupmode="layer"
     id="layer1"
     transform="translate(-41.909206,107.20933)"><path
       style="fill:#000000;stroke-width:0.880975;fill-opacity:1"
       d="m 233.58379,128.00641 c -12.36184,-0.60565 -35.56408,-3.55271 -40.96528,-5.20327 -1.45361,-0.44422 -5.02155,-1.27342 -7.92876,-1.84272 -14.38935,-2.81779 -48.95367,-16.5519 -55.65735,-22.115483 -0.93687,-0.777486 -1.16542,-9.238715 -1.16542,-43.146021 0,-26.513652 0.31566,-42.178857 0.8502,-42.178857 0.46758,0 2.5489,0.552115 4.6251,1.226914 2.07621,0.67481 8.13574,2.485094 13.46563,4.022859 5.32989,1.537765 11.27647,3.338107 13.21459,4.000764 1.93815,0.662652 4.91143,1.587558 6.60733,2.055346 1.69584,0.467789 10.61573,3.036592 19.82187,5.708451 9.2062,2.671862 22.88329,6.638812 30.3936,8.815411 17.68682,5.125984 21.55144,5.88528 29.95308,5.88528 8.44934,0 12.37231,-0.776811 29.95312,-5.931262 7.51031,-2.20194 16.82659,-4.88961 20.70288,-5.972586 3.87626,-1.082996 12.00324,-3.447389 18.05993,-5.25422 6.05672,-1.806822 12.79616,-3.796668 14.97656,-4.421879 2.18042,-0.625198 7.33411,-2.136766 11.45267,-3.359027 4.11852,-1.222262 10.46154,-3.065603 14.09557,-4.096315 3.634,-1.030705 7.30103,-2.082011 8.14897,-2.336235 1.45345,-0.435773 1.54173,1.981829 1.54173,42.227322 V 98.78043 l -3.74414,1.82998 c -2.05928,1.00647 -5.13168,2.62271 -6.82753,3.59163 -4.68775,2.67827 -20.93336,9.34771 -30.12673,12.36813 -9.81586,3.22492 -28.0863,7.36359 -39.02969,8.84109 -4.36079,0.58878 -10.10917,1.37869 -12.77413,1.75539 -2.66494,0.37667 -9.32141,0.74739 -14.7922,0.82385 -5.47081,0.0766 -10.42626,0.25205 -11.01219,0.39036 -0.58589,0.13817 -6.81363,-0.03 -13.83941,-0.37445 z M 62.39639,92.45819 c -4.406241,-1.632829 -6.319999,-3.453016 -8.614934,-8.193706 -1.502513,-3.103765 -1.772548,-4.791239 -1.316616,-8.228021 0.763057,-5.752284 5.069578,-16.158186 8.4046,-20.308179 l 2.686507,-3.342983 V 19.297147 c 0,-25.9189574 0.238736,-33.073642 1.101185,-33.021136 0.605698,0.03683 2.488756,0.567453 4.184653,1.179094 l 3.083401,1.112069 0.440481,32.681707 0.440482,32.681718 2.322107,2.479334 c 6.702845,7.156742 9.911573,21.568707 6.433807,28.897545 -3.080405,6.491473 -11.982191,9.812744 -19.165673,7.150712 z M 241.30651,11.660631 c -6.18242,-0.633839 -15.6278,-3.0552317 -35.47337,-9.0938451 -3.8763,-1.1794756 -11.40863,-3.40273551 -16.73852,-4.9405706 -5.32988,-1.5378338 -13.06043,-3.7817637 -17.17896,-4.9865119 -4.11855,-1.2047481 -10.65977,-3.1097974 -14.53607,-4.2334374 -3.87629,-1.123637 -11.01216,-3.222289 -15.85752,-4.663668 -4.84537,-1.441388 -12.77412,-3.694899 -17.61948,-5.007822 -4.84533,-1.312925 -11.78301,-3.310971 -15.41701,-4.440126 -3.63402,-1.129143 -10.968138,-3.297471 -16.298029,-4.81851 -5.329892,-1.521036 -11.276438,-3.30736 -13.2146,-3.96962 -1.938129,-0.662256 -9.390848,-2.827368 -16.56161,-4.811366 -19.763779,-5.468212 -22.697114,-6.985872 -19.278614,-9.974477 1.748404,-1.528558 3.681107,-2.191545 19.982706,-6.854766 16.621144,-4.754621 42.492027,-12.279686 55.941827,-16.271786 6.0567,-1.797725 13.19256,-3.829364 15.85753,-4.514762 2.66492,-0.685387 5.63821,-1.586458 6.60728,-2.002371 0.96906,-0.415919 6.51921,-2.047293 12.33363,-3.625295 5.81443,-1.578 13.34677,-3.735433 16.7385,-4.794311 3.39174,-1.058866 10.72582,-3.226 16.29798,-4.815848 5.57216,-1.589841 12.50984,-3.62643 15.41704,-4.525755 9.70735,-3.002876 26.8399,-7.801603 32.83479,-9.196823 11.64473,-2.71014 25.05675,-1.29889 42.48845,4.47075 2.18039,0.72167 10.70385,3.248603 18.94093,5.61539 8.23712,2.366777 18.54448,5.369391 22.90532,6.672458 11.13565,3.327472 41.04976,12.005391 43.16769,12.522698 0.96908,0.236706 5.5281,1.557543 10.13118,2.935212 14.22432,4.257222 36.27578,10.676567 42.28672,12.309978 3.1495,0.85584 10.28537,2.945036 15.85752,4.642654 5.57214,1.697615 12.36356,3.721457 15.09197,4.497429 5.42339,1.542425 9.30445,4.127508 8.39822,5.593863 -0.74341,1.20281 -10.36879,4.529669 -24.81164,8.575721 -6.29893,1.764596 -15.81345,4.559978 -21.14335,6.211938 -5.32991,1.651967 -16.82658,5.031033 -25.54823,7.509036 -8.72164,2.478012 -17.6415,5.013164 -19.8219,5.633677 -2.18043,0.620511 -7.53231,2.201885 -11.89315,3.514164 -7.91394,2.381493 -42.45426,12.4680129 -53.29887,15.56441278 -3.1495,0.89925252 -12.66401,3.63498512 -21.14337,6.07940362 -8.47939,2.4444172 -17.59742,4.6595996 -20.26238,4.9226316 -2.66494,0.263011 -5.63822,0.588605 -6.6073,0.723511 -0.96907,0.134883 -4.82797,-0.06907 -8.57531,-0.453256 z M 215.08333,-7.1324324 c 4.11858,-1.1710926 10.46158,-2.9651186 14.0956,-3.9867096 12.05513,-3.388954 17.71217,-5.477261 17.39718,-6.422219 -0.1712,-0.513782 -3.66013,-1.872984 -7.75304,-3.020453 -4.09295,-1.147465 -10.61321,-3.032821 -14.48951,-4.189671 -3.87627,-1.156843 -10.81396,-3.195431 -15.41702,-4.530182 -9.64864,-2.797798 -10.76705,-3.445877 -7.33256,-4.248911 3.26949,-0.764454 34.33653,-9.756735 42.131,-12.194723 1.93816,-0.606216 3.52391,-1.498649 3.52391,-1.983185 0,-0.845719 -5.44701,-2.61465 -21.58388,-7.009392 -7.87362,-2.144327 -23.3643,-6.51237 -25.45407,-7.1775 -0.67501,-0.214864 -1.04439,-0.573586 -0.82075,-0.797179 0.22375,-0.223586 7.11887,-2.386309 15.32286,-4.806027 27.20679,-8.02446 30.76502,-9.07044 31.87512,-9.370023 3.17813,-0.857687 -0.0779,-2.293843 -13.87535,-6.120062 -2.18039,-0.604656 -8.80693,-2.5276 -14.72564,-4.273203 -5.91867,-1.745598 -11.42076,-3.173819 -12.22685,-3.173819 -0.80605,0 -4.48691,0.96825 -8.17964,2.151672 -9.20765,2.950773 -27.45033,8.353677 -34.86784,10.32675 -10.87504,2.892773 -10.59659,3.135504 10.53427,9.183142 20.15679,5.768871 20.03451,5.729657 19.50877,6.255368 -0.44414,0.444153 -3.64493,1.400132 -27.43755,8.194656 -4.84535,1.383707 -11.58326,3.312999 -14.97315,4.287312 l -6.16341,1.771486 -19.82531,-5.755859 c -21.70611,-6.301925 -22.54851,-6.378553 -33.480365,-3.045549 -3.149494,0.960242 -9.888929,3.00206 -14.976555,4.537371 -5.087625,1.53531 -9.737433,3.190607 -10.332909,3.678427 -1.438949,1.178785 0.147492,4.219024 2.21489,4.244318 0.830918,0.01 4.880454,1.026569 8.999014,2.258666 4.118525,1.232101 11.563621,3.427796 16.544596,4.879313 l 9.056349,2.639127 12.52753,-3.696566 c 22.51481,-6.643597 27.479,-8.003951 29.26597,-8.019836 1.77191,-0.01567 7.42514,1.542673 27.75067,7.649977 6.05669,1.819886 13.30546,3.904429 16.10843,4.632334 2.80295,0.727897 4.89111,1.52862 4.64037,1.779372 -0.69744,0.697424 -8.80989,3.318221 -18.10588,5.849248 -16.46495,4.482931 -19.47883,5.453235 -19.50534,6.279657 -0.0234,0.756809 5.06926,2.420566 26.99357,8.817231 3.8763,1.13095 10.41753,3.0406172 14.53609,4.2437109 9.36821,2.7365933 9.44347,2.7372529 18.50043,0.1619124 z m 83.69251,-0.028968 c 4.11854,-1.1870322 11.65087,-3.3875906 16.73847,-4.8901326 10.1792,-3.006226 24.57931,-7.025305 25.17132,-7.025305 0.20742,0 0.37232,-0.495547 0.3667,-1.101217 -0.006,-0.66568 -4.97128,-2.462955 -12.55388,-4.544253 -15.36479,-4.217416 -23.78275,-6.790188 -24.65849,-7.536392 -0.57555,-0.49043 12.61688,-4.543196 38.89244,-11.947884 7.70591,-2.1716 10.16461,-3.51912 7.94795,-4.355964 -0.68673,-0.259249 -3.82539,-1.203565 -6.9749,-2.098488 -29.70445,-8.440463 -38.50091,-11.017249 -39.57609,-11.593186 -0.81386,-0.435951 1.39453,-1.479382 6.29421,-2.973866 4.15138,-1.266257 7.86368,-2.30228 8.24948,-2.30228 0.86085,0 14.3525,-4.071765 19.64567,-5.929043 4.76892,-1.673327 3.99605,-2.253581 -6.88629,-5.170006 -4.15185,-1.11269 -10.1257,-2.808068 -13.27521,-3.76751 -18.67674,-5.689591 -28.00932,-8.106276 -29.95307,-7.756379 -2.49613,0.449321 -30.38161,8.688687 -35.52344,10.496161 -1.85233,0.651147 -3.2901,1.564748 -3.19504,2.030229 0.14364,0.703027 4.05657,2.078938 12.28929,4.321247 0.72678,0.197941 4.88939,1.414438 9.25024,2.703298 4.36078,1.288858 11.10026,3.27294 14.97652,4.40908 3.87629,1.136139 8.03889,2.449678 9.25023,2.918991 2.59983,1.00726 2.3536,1.131036 -7.0478,3.542886 -3.63404,0.932272 -10.17525,2.741485 -14.53603,4.020473 -4.36085,1.278988 -11.29853,3.310451 -15.41705,4.514365 -4.11856,1.203906 -7.98383,2.183913 -8.5895,2.17779 -1.41707,-0.01435 -1.42365,1.447534 -0.01,2.320927 0.59992,0.370752 4.86159,1.725822 9.47048,3.011253 24.36378,6.795184 37.82816,10.917515 37.23504,11.400065 -0.82549,0.671588 -19.42946,6.252663 -36.78405,11.035003 -4.84537,1.335222 -9.60262,2.838797 -10.57169,3.341287 -1.91334,0.992089 -0.64498,1.482385 16.29798,6.300401 4.11855,1.171177 10.85802,3.1134573 14.97656,4.3161731 9.37979,2.7391292 9.45383,2.7396583 18.50043,0.1322777 z M 412.38632,-40.250123 c 23.60245,-6.953973 24.17867,-7.820359 8.13997,-12.239407 -5.66906,-1.561958 -13.28197,-3.801153 -16.91765,-4.976001 -8.45697,-2.732844 -11.02168,-2.686309 -21.17536,0.38419 -4.58382,1.386158 -12.89326,3.809083 -18.46542,5.384291 -5.57216,1.575207 -10.49309,3.201411 -10.93536,3.613796 -1.0423,0.971766 1.43646,1.899 17.54264,6.56216 7.26808,2.104273 14.9986,4.40794 17.179,5.119247 2.18039,0.711306 4.55904,1.331326 5.28585,1.377824 0.7268,0.04651 9.43263,-2.30525 19.34633,-5.2261 z"
       id="path856"
       sodipodi:nodetypes="csssssssssssssssssssscssssscccsssscssscccssssssssssssssssssssssssssssssssssssssssssssscsssssssscssssssssssscsssscsscscsssscsssscsscsssssssssssssssssssssscssssssccssssssssss" /></g></svg>
