<?xml version="1.0" encoding="UTF-8" standalone="no"?>
<svg
   width="135.46666mm"
   height="135.46666mm"
   viewBox="0 0 135.46666 135.46666"
   version="1.1"
   id="svg5"
   xml:space="preserve"
   inkscape:version="1.2.2 (732a01da63, 2022-12-09)"
   sodipodi:docname="facebook.svg"
   xmlns:inkscape="http://www.inkscape.org/namespaces/inkscape"
   xmlns:sodipodi="http://sodipodi.sourceforge.net/DTD/sodipodi-0.dtd"
   xmlns:xlink="http://www.w3.org/1999/xlink"
   xmlns="http://www.w3.org/2000/svg"
   xmlns:svg="http://www.w3.org/2000/svg"><sodipodi:namedview
     id="namedview7"
     pagecolor="#ffffff"
     bordercolor="#000000"
     borderopacity="0.25"
     inkscape:showpageshadow="2"
     inkscape:pageopacity="0.0"
     inkscape:pagecheckerboard="0"
     inkscape:deskcolor="#d1d1d1"
     inkscape:document-units="mm"
     showgrid="false"
     inkscape:zoom="0.70710678"
     inkscape:cx="354.9676"
     inkscape:cy="229.8097"
     inkscape:window-width="1920"
     inkscape:window-height="991"
     inkscape:window-x="-9"
     inkscape:window-y="-9"
     inkscape:window-maximized="1"
     inkscape:current-layer="layer1" /><defs
     id="defs2"><linearGradient
       inkscape:collect="always"
       id="linearGradient18698"><stop
         style="stop-color:#1c3977;stop-opacity:1;"
         offset="0"
         id="stop18694" /><stop
         style="stop-color:#2b4886;stop-opacity:1;"
         offset="0.36153847"
         id="stop19451" /><stop
         style="stop-color:#3a5795;stop-opacity:1;"
         offset="0.73589748"
         id="stop19453" /><stop
         style="stop-color:#4966a4;stop-opacity:1;"
         offset="1"
         id="stop18696" /></linearGradient><linearGradient
       inkscape:collect="always"
       xlink:href="#linearGradient18698"
       id="linearGradient18700"
       x1="110.44426"
       y1="48.178043"
       x2="111.19262"
       y2="194.85556"
       gradientUnits="userSpaceOnUse" /></defs><g
     inkscape:label="Layer 1"
     inkscape:groupmode="layer"
     id="layer1"
     transform="translate(-42.718163,-54.539059)"><path
       style="display:inline;fill:#ffffff;fill-opacity:1;stroke-width:0.086183"
       d="m 107.29796,189.92313 c -2.04377,-0.0984 -5.14902,-0.3909 -6.70229,-0.6314 -0.28357,-0.0438 -0.689572,-0.10272 -0.90223,-0.13083 -1.278407,-0.16846 -4.219283,-0.7817 -6.229695,-1.29903 -7.023051,-1.80717 -13.766021,-4.80649 -19.80998,-8.81163 -2.592983,-1.71826 -4.733872,-3.33768 -7.08512,-5.35934 -1.305611,-1.12259 -5.078385,-4.86217 -6.239527,-6.18464 -4.290107,-4.88613 -8.132815,-10.80216 -10.695855,-16.46678 -4.936778,-10.91084 -6.891171,-22.66095 -5.743808,-34.5327 1.353368,-14.00328 7.087616,-27.209281 16.439663,-37.860635 1.161142,-1.322461 4.933916,-5.062045 6.239527,-6.184636 8.771881,-7.542242 18.801509,-12.538749 29.816611,-14.853875 1.416716,-0.297761 2.604503,-0.520678 3.222262,-0.604726 0.165406,-0.02251 0.726072,-0.10118 1.245942,-0.174838 5.06345,-0.717414 10.47529,-0.839312 15.46681,-0.34838 5.55832,0.546677 10.45101,1.614084 15.56594,3.395919 8.20597,2.858621 15.7357,7.30391 22.39672,13.222216 1.16684,1.036737 3.88229,3.739196 4.96712,4.943357 8.36123,9.281044 13.89201,20.462903 16.18261,32.717368 0.32469,1.73706 0.31639,1.68212 0.60892,4.01944 0.68152,5.44543 0.68152,11.151 0,16.59645 -0.29253,2.33733 -0.28423,2.28234 -0.60892,4.01945 -1.69008,9.04162 -5.17299,17.57973 -10.24335,25.11077 -2.52045,3.7436 -4.98494,6.72942 -8.28563,10.03827 -7.06931,7.08681 -15.60469,12.45484 -25.01747,15.73387 -5.13306,1.78815 -10.06581,2.86205 -15.60887,3.39815 -2.73301,0.26432 -6.48758,0.36809 -8.97938,0.24817 z"
       id="path4992"
       inkscape:label="white-bg"
       sodipodi:nodetypes="scccssssssssssssssssscssssss" /><path
       style="display:inline;fill:url(#linearGradient18700);fill-opacity:1;stroke-width:0.264583"
       d="M 96.469493,188.61917 C 17.677167,171.58857 29.955148,54.484071 110.53428,54.472524 c 78.98098,-0.01132 93.06699,114.979326 16.36229,133.573036 -3.28812,0.79706 -5.83825,1.10185 -5.83825,1.10185 0,0 0.0174,-10.11703 0.0174,-23.65289 0,-11.85513 0.0284,-23.65552 0.0284,-23.65552 0,0 3.87165,-0.0547 7.77174,-0.0547 7.80017,0 7.80017,0 7.92998,-0.59531 0.25571,-1.17268 3.04464,-18.9856 3.04464,-18.9856 0,0 -0.96075,-0.0213 -9.5316,0.002 -4.6388,0.0125 -9.19193,-0.0473 -9.19193,-0.0473 0,0 -0.0412,-4.02066 0.003,-8.08863 0.0857,-7.83205 0.11177,-8.18534 0.69752,-9.45856 2.11449,-4.59623 4.64242,-5.688833 13.1621,-5.688833 2.83249,0 5.63278,0.0014 5.63278,0.0014 0,0 0.0322,-4.151298 0.0322,-8.301177 0,-4.643835 0.0246,-8.445388 0.0246,-8.445388 0,0 -3.37258,-0.329682 -7.44254,-0.707946 -16.08764,-1.495193 -25.35326,2.192202 -30.22658,12.029135 -2.57384,5.195363 -3.091333,8.786539 -3.09768,21.497389 -0.0018,3.60495 -0.09849,7.09228 -0.09849,7.09228 0,0 -4.204592,0.11762 -8.504078,0.11762 -4.299479,0 -8.586122,0.0231 -8.586122,0.0231 0,0 -0.01283,4.87165 -0.01283,9.76644 0,4.89479 -0.06783,9.79301 -0.06783,9.79301 0,0 4.367309,-0.003 8.666788,-0.003 4.299479,0 8.505315,0.051 8.505315,0.051 0,0 0.118303,11.78915 0.09364,23.62923 -0.04906,23.55323 -0.05507,23.67394 -0.05507,23.67394 0,0 -1.007512,-0.018 -3.384511,-0.51925 z"
       id="path2161"
       sodipodi:nodetypes="csscscsscscscscscssscscscscsccc"
       inkscape:label="facebook" /></g></svg>
