<?xml version="1.0" encoding="UTF-8" standalone="no"?>
<svg
   fill="#000000"
   width="512.05524"
   height="512.05524"
   viewBox="0 0 12.289325 12.289326"
   data-name="Instagram w/circle"
   version="1.1"
   id="svg5304"
   sodipodi:docname="instagram.svg"
   inkscape:version="1.2.2 (732a01da63, 2022-12-09)"
   xmlns:inkscape="http://www.inkscape.org/namespaces/inkscape"
   xmlns:sodipodi="http://sodipodi.sourceforge.net/DTD/sodipodi-0.dtd"
   xmlns:xlink="http://www.w3.org/1999/xlink"
   xmlns="http://www.w3.org/2000/svg"
   xmlns:svg="http://www.w3.org/2000/svg">
  <defs
     id="defs5308">
    <linearGradient
       inkscape:collect="always"
       id="linearGradient10125">
      <stop
         style="stop-color:#feda75;stop-opacity:1;"
         offset="0"
         id="stop10121" />
      <stop
         style="stop-color:#fa7e1e;stop-opacity:1;"
         offset="0.22020668"
         id="stop10131" />
      <stop
         style="stop-color:#d62976;stop-opacity:1;"
         offset="0.46666667"
         id="stop10133" />
      <stop
         style="stop-color:#962fbf;stop-opacity:1;"
         offset="0.71794873"
         id="stop10135" />
      <stop
         style="stop-color:#4f5bd5;stop-opacity:1;"
         offset="1"
         id="stop10123" />
    </linearGradient>
    <linearGradient
       id="linearGradient10117"
       inkscape:swatch="solid">
      <stop
         style="stop-color:#ffffff;stop-opacity:1;"
         offset="0"
         id="stop10115" />
    </linearGradient>
    <linearGradient
       inkscape:collect="always"
       xlink:href="#linearGradient10125"
       id="linearGradient15947"
       x1="2.4460855"
       y1="16.901587"
       x2="16.764179"
       y2="2.3402989"
       gradientUnits="userSpaceOnUse"
       gradientTransform="scale(0.64006899)" />
  </defs>
  <sodipodi:namedview
     id="namedview5306"
     pagecolor="#ffffff"
     bordercolor="#000000"
     borderopacity="0.25"
     inkscape:showpageshadow="2"
     inkscape:pageopacity="0.0"
     inkscape:pagecheckerboard="0"
     inkscape:deskcolor="#d1d1d1"
     showgrid="false"
     inkscape:zoom="1.005"
     inkscape:cx="197.51244"
     inkscape:cy="328.85572"
     inkscape:window-width="1920"
     inkscape:window-height="991"
     inkscape:window-x="-9"
     inkscape:window-y="-9"
     inkscape:window-maximized="1"
     inkscape:current-layer="svg5304" />
  <path
     style="display:inline;fill:#ffffff;fill-opacity:1;stroke-width:0.00687024"
     d="M 6.1438818,11.23758 C 5.9804728,11.22978 5.7321934,11.20652 5.6080021,11.1874 5.5853301,11.1839 5.5528681,11.1793 5.5358651,11.177 5.433651,11.163612 5.1985145,11.114869 5.037773,11.073753 4.476248,10.930116 3.9371169,10.691729 3.4538748,10.373402 3.246554,10.236834 3.0753803,10.108123 2.8873872,9.947441 2.7829977,9.8582175 2.4813472,9.5609947 2.3885086,9.4558854 2.0454951,9.067536 1.7382531,8.5973296 1.5333263,8.1471052 1.1386084,7.2799108 0.98234584,6.3460112 1.0740827,5.4024443 1.1822907,4.2894629 1.6407699,3.239849 2.3885086,2.3932789 2.4813472,2.2881696 2.7829977,1.9909472 2.8873872,1.9017237 3.588739,1.3022658 4.3906535,0.90514322 5.2713609,0.72113685 c 0.1132729,-0.023666 0.208242,-0.0413835 0.2576343,-0.0480637 0.013225,-0.001792 0.058054,-0.008038 0.099619,-0.0138962 0.4048463,-0.0570204 0.837547,-0.0667085 1.2366422,-0.0276895 0.4444129,0.0434495 0.835605,0.12828752 1.2445675,0.26990792 0.6561043,0.22720333 1.2581408,0.58051513 1.7907197,1.05090233 0.093295,0.0824 0.3104084,0.2971916 0.3971454,0.3928983 0.668518,0.7376578 1.110728,1.6263926 1.293873,2.6003781 0.02596,0.1380621 0.02529,0.1336948 0.04869,0.3194656 0.05448,0.4328029 0.05448,0.8862818 0,1.3190864 -0.02339,0.1857716 -0.02272,0.1814009 -0.04869,0.3194664 -0.135129,0.7186284 -0.413605,1.397238 -0.819003,1.9958054 C 10.571037,9.1969396 10.373991,9.4342525 10.110086,9.6972402 9.5448616,10.2605 8.8624185,10.687151 8.1098239,10.947769 7.699412,11.089891 7.3050165,11.175245 6.8618228,11.217854 c -0.2185157,0.02101 -0.5187106,0.02926 -0.717941,0.01973 z"
     id="path4992"
     inkscape:label="white-bg"
     sodipodi:nodetypes="scccssssssssssssssssscssssss" />
  <path
     d="M 8.6396511,4.257099 A 1.0599544,1.0599544 0 0 0 8.0315854,3.6496735 1.770431,1.770431 0 0 0 7.4376013,3.5395818 C 7.1002849,3.5242199 6.9991541,3.5203792 6.1446619,3.5203792 c -0.8544922,0 -0.955623,0.00384 -1.2929395,0.019203 A 1.770431,1.770431 0 0 0 4.2570983,3.6496735 1.0599544,1.0599544 0 0 0 3.6496728,4.2577392 1.770431,1.770431 0 0 0 3.539581,4.8517232 C 3.524217,5.1890396 3.520378,5.2901704 3.520378,6.1446627 c 0,0.8544923 0.00384,0.9556233 0.019203,1.2929394 a 1.770431,1.770431 0 0 0 0.1100918,0.5946243 1.0599544,1.0599544 0 0 0 0.6080655,0.6074255 1.770431,1.770431 0 0 0 0.5939841,0.1100919 c 0.3373165,0.015364 0.4384473,0.018562 1.2929395,0.018562 0.8544922,0 0.955623,-0.0032 1.2929394,-0.019204 A 1.770431,1.770431 0 0 0 8.0322254,8.6396519 1.0599544,1.0599544 0 0 0 8.6396511,8.0315863 1.770431,1.770431 0 0 0 8.7497429,7.4376021 c 0.015362,-0.3373161 0.018563,-0.4384471 0.018563,-1.2929394 0,-0.8544923 -0.0032,-0.9556231 -0.019203,-1.2929395 A 1.770431,1.770431 0 0 0 8.6396511,4.257099 Z M 6.1446619,7.7883599 A 1.6436973,1.6436973 0 1 1 7.7883593,6.1446627 1.6436973,1.6436973 0 0 1 6.1446619,7.7883599 Z M 7.8530061,4.82036 A 0.38404144,0.38404144 0 1 1 8.2370476,4.4363185 0.38404144,0.38404144 0 0 1 7.8530061,4.82036 Z M 7.2116569,6.1446627 a 1.066995,1.066995 0 1 1 -1.066995,-1.066995 1.066995,1.066995 0 0 1 1.066995,1.066995 z M 6.1446619,0 A 6.1446628,6.1446628 0 1 0 12.289326,6.1446627 6.1446628,6.1446628 0 0 0 6.1446619,0 Z M 9.3258052,7.463845 A 2.3490535,2.3490535 0 0 1 9.176669,8.2408889 1.6360164,1.6360164 0 0 1 8.2408879,9.1766697 2.3490535,2.3490535 0 0 1 7.4644843,9.325806 C 7.1226874,9.341168 7.0138756,9.345008 6.1446619,9.345008 c -0.8692137,0 -0.9780255,-0.00384 -1.3198225,-0.019202 A 2.3490535,2.3490535 0 0 1 4.0484358,9.1766697 1.6360164,1.6360164 0 0 1 3.1126549,8.2408889 2.3490535,2.3490535 0 0 1 2.9635187,7.4644849 C 2.9481568,7.1226883 2.9443161,7.0138765 2.9443161,6.1446627 c 0,-0.8692137 0.00384,-0.9780256 0.019203,-1.3198223 A 2.3490535,2.3490535 0 0 1 3.1120149,4.0484367 1.6360164,1.6360164 0 0 1 4.0484358,3.1120157 2.3490535,2.3490535 0 0 1 4.8248394,2.9635196 c 0.341797,-0.015364 0.4506088,-0.019202 1.3198225,-0.019202 0.8692137,0 0.9780255,0.00384 1.3198224,0.019202 a 2.3490535,2.3490535 0 0 1 0.7764036,0.1484961 1.6360164,1.6360164 0 0 1 0.9357811,0.936421 2.3490535,2.3490535 0 0 1 0.1491362,0.7764037 c 0.015361,0.3417967 0.019202,0.4506086 0.019202,1.3198223 0,0.8692138 -0.00384,0.9780256 -0.019202,1.3198222 z"
     id="path5302"
     style="fill:url(#linearGradient15947);fill-opacity:1;stroke-width:0.640068" />
</svg>
