<?xml version="1.0" encoding="UTF-8" standalone="no"?>
<svg
   width="135.46666mm"
   height="135.46666mm"
   viewBox="0 0 135.46666 135.46666"
   version="1.1"
   id="svg5"
   xml:space="preserve"
   inkscape:version="1.2.2 (732a01da63, 2022-12-09)"
   sodipodi:docname="twitter-x.svg"
   xmlns:inkscape="http://www.inkscape.org/namespaces/inkscape"
   xmlns:sodipodi="http://sodipodi.sourceforge.net/DTD/sodipodi-0.dtd"
   xmlns="http://www.w3.org/2000/svg"
   xmlns:svg="http://www.w3.org/2000/svg"><sodipodi:namedview
     id="namedview7"
     pagecolor="#ffffff"
     bordercolor="#000000"
     borderopacity="0.25"
     inkscape:showpageshadow="2"
     inkscape:pageopacity="0.0"
     inkscape:pagecheckerboard="0"
     inkscape:deskcolor="#d1d1d1"
     inkscape:document-units="mm"
     showgrid="false"
     inkscape:zoom="1"
     inkscape:cx="146"
     inkscape:cy="315.5"
     inkscape:window-width="1920"
     inkscape:window-height="991"
     inkscape:window-x="-9"
     inkscape:window-y="-9"
     inkscape:window-maximized="1"
     inkscape:current-layer="layer1" /><defs
     id="defs2" /><g
     inkscape:label="Layer 1"
     inkscape:groupmode="layer"
     id="layer1"
     transform="translate(-42.718163,-54.539059)"><path
       style="display:inline;fill:#ffffff;stroke-width:0.0875277;fill-opacity:1"
       d="m 107.6915,189.92251 c -2.08185,-0.0996 -5.24496,-0.39582 -6.82717,-0.63935 -0.28885,-0.0444 -0.70241,-0.10401 -0.919032,-0.13248 -1.302224,-0.17058 -4.297891,-0.79153 -6.345758,-1.31537 -7.153895,-1.82992 -14.022491,-4.86699 -20.179053,-8.92253 -2.641292,-1.73989 -4.822067,-3.37969 -7.21712,-5.42679 -1.329936,-1.13672 -5.172999,-4.92337 -6.355774,-6.26248 -4.370034,-4.94762 -8.284334,-10.93811 -10.895126,-16.67402 -5.028753,-11.04816 -7.019558,-22.94615 -5.850819,-34.96731 1.378582,-14.17952 7.219663,-27.551725 16.745945,-38.337131 1.182775,-1.339105 5.025838,-5.125754 6.355774,-6.262473 8.935307,-7.637165 19.151793,-12.696555 30.372113,-15.040818 1.44311,-0.301508 2.653027,-0.527231 3.282291,-0.612337 0.168489,-0.02279 0.739609,-0.102453 1.269159,-0.177038 5.15779,-0.726443 10.67045,-0.849875 15.75497,-0.352765 5.66187,0.553557 10.64571,1.634398 15.85594,3.438659 8.35885,2.894598 16.02887,7.395833 22.81398,13.388623 1.18859,1.049785 3.95463,3.786256 5.05966,5.005572 8.51701,9.39785 14.15083,20.720438 16.48411,33.129128 0.33074,1.75893 0.32228,1.70329 0.62027,4.07003 0.69422,5.51396 0.69422,11.29134 0,16.80532 -0.29799,2.36675 -0.28953,2.31107 -0.62027,4.07004 -1.72156,9.15541 -5.26936,17.80098 -10.43419,25.4268 -2.56741,3.79072 -5.07781,6.81411 -8.43999,10.16461 -7.20102,7.176 -15.89542,12.61159 -25.48357,15.93189 -5.2287,1.81065 -10.25334,2.89807 -15.89968,3.44091 -2.78392,0.26765 -6.60844,0.37273 -9.14666,0.2513 z"
       id="path4992"
       inkscape:label="white-bg"
       transform="translate(1.1458333e-6)"
       sodipodi:nodetypes="scccssssssssssssssssscssssss" /><path
       style="display:inline;fill:#000000;stroke-width:0.0875277"
       d="m 107.6915,189.92251 c -2.08185,-0.0996 -5.24496,-0.39582 -6.82717,-0.63935 -0.28885,-0.0444 -0.70241,-0.10401 -0.919032,-0.13248 -1.302224,-0.17058 -4.297891,-0.79153 -6.345758,-1.31537 -7.153895,-1.82992 -14.022491,-4.86699 -20.179053,-8.92253 -2.641292,-1.73989 -4.822067,-3.37969 -7.21712,-5.42679 -1.329936,-1.13672 -5.172999,-4.92337 -6.355774,-6.26248 -4.370034,-4.94762 -8.284334,-10.93811 -10.895126,-16.67402 -5.028753,-11.04816 -7.019558,-22.94615 -5.850819,-34.96731 1.378582,-14.17952 7.219663,-27.551725 16.745945,-38.337131 1.182775,-1.339105 5.025838,-5.125754 6.355774,-6.262473 8.935307,-7.637165 19.151793,-12.696555 30.372113,-15.040818 1.44311,-0.301508 2.653027,-0.527231 3.282291,-0.612337 0.168489,-0.02279 0.739609,-0.102453 1.269159,-0.177038 5.15779,-0.726443 10.67045,-0.849875 15.75497,-0.352765 5.66187,0.553557 10.64571,1.634398 15.85594,3.438659 8.35885,2.894598 16.02887,7.395833 22.81398,13.388623 1.18859,1.049785 3.95463,3.786256 5.05966,5.005572 8.51701,9.39785 14.15083,20.720438 16.48411,33.129128 0.33074,1.75893 0.32228,1.70329 0.62027,4.07003 0.69422,5.51396 0.69422,11.29134 0,16.80532 -0.29799,2.36675 -0.28953,2.31107 -0.62027,4.07004 -1.72156,9.15541 -5.26936,17.80098 -10.43419,25.4268 -2.56741,3.79072 -5.07781,6.81411 -8.43999,10.16461 -7.20102,7.176 -15.89542,12.61159 -25.48357,15.93189 -5.2287,1.81065 -10.25334,2.89807 -15.89968,3.44091 -2.78392,0.26765 -6.60844,0.37273 -9.14666,0.2513 z m 46.55414,-22.80839 c -0.0653,-0.11056 -8.46815,-12.3342 -10.75512,-15.64556 -0.68158,-0.98688 -2.36372,-3.42891 -3.73813,-5.42672 -2.70413,-3.93069 -3.65561,-5.31312 -14.20525,-20.6393 -3.85122,-5.59493 -7.0022,-10.20867 -7.0022,-10.25273 0,-0.0439 2.20568,-2.64955 4.90155,-5.78996 8.31299,-9.683847 14.26402,-16.619417 20.90952,-24.368777 3.50895,-4.091815 6.43957,-7.50859 6.51249,-7.592834 0.12601,-0.14556 -0.0548,-0.153175 -3.63639,-0.153175 h -3.76895 l -3.97608,4.617083 c -27.44202,31.866213 -24.39008,28.333193 -24.43356,28.284963 -0.0353,-0.0391 -1.812,-2.61804 -9.46152,-13.733487 -2.83258,-4.115977 -6.668127,-9.689311 -8.523425,-12.385165 -1.855313,-2.695854 -3.591768,-5.224771 -3.858808,-5.61982 l -0.485514,-0.718271 -12.975975,-0.0039 c -7.136789,-0.0021 -12.97459,0.02571 -12.972889,0.06181 0.0017,0.03611 2.296745,3.433275 5.100097,7.549266 2.803356,4.115992 7.831299,11.501139 11.173208,16.411457 3.341911,4.91029 8.595115,12.62737 11.673776,17.14908 3.07866,4.5217 5.60187,8.27009 5.60713,8.32977 0.008,0.10154 -1.033864,1.34044 -5.076887,6.0311 -3.323627,3.85606 -13.782794,15.99759 -19.113767,22.18829 -3.005482,3.49015 -6.322687,7.33994 -7.371569,8.55507 -1.048882,1.21513 -1.917014,2.24966 -1.929186,2.29891 -0.01483,0.0601 1.245973,0.0904 3.823278,0.0921 l 3.845407,0.003 0.190154,-0.20074 c 0.104586,-0.11046 1.979611,-2.28831 4.166719,-4.83974 4.189113,-4.88692 18.87025,-21.9991 22.640551,-26.38959 1.21953,-1.42015 2.24982,-2.59386 2.28949,-2.60825 0.0395,-0.0144 1.24596,1.69897 2.68062,3.80747 2.85585,4.19727 12.89852,18.95161 17.96516,26.39387 l 3.20289,4.70462 h 13.33394 c 10.64329,0 13.32088,-0.0221 13.26924,-0.10945 z m -25.11997,-9.14664 c -1.24175,-1.76915 -3.64107,-5.18601 -5.3318,-7.59303 -8.10576,-11.53984 -15.10514,-21.50954 -15.52724,-22.11655 l -0.46749,-0.67225 3.25735,-3.79167 c 1.79157,-2.0854 3.28902,-3.80324 3.32773,-3.81742 0.0387,-0.0143 2.09772,2.86108 4.57563,6.38952 2.47789,3.52843 8.98139,12.78839 14.45223,20.57771 5.47081,7.78935 9.94694,14.17997 9.94694,14.20138 0,0.0215 -2.6945,0.0388 -5.98778,0.0388 h -5.9878 z M 93.193045,106.80418 C 87.066108,98.080616 80.933831,89.347957 79.565759,87.398276 78.197685,85.448594 77.001893,83.745096 76.908445,83.612708 l -0.169913,-0.240705 6.023489,0.0029 6.023489,0.0029 3.999981,5.707785 c 2.199997,3.139284 7.189758,10.249324 11.088359,15.800092 l 7.08837,10.09231 -2.7249,3.16813 c -1.49869,1.74249 -2.99029,3.47189 -3.31465,3.84314 l -0.58975,0.67497 -11.139875,-15.86105 z"
       id="path1484"
       inkscape:label="twitter-x" /></g></svg>
