<?xml version="1.0" encoding="UTF-8" standalone="no"?>
<svg
   width="135.75885mm"
   height="135.88763mm"
   viewBox="0 0 135.75885 135.88763"
   version="1.1"
   id="svg5"
   xml:space="preserve"
   inkscape:version="1.2.2 (732a01da63, 2022-12-09)"
   sodipodi:docname="youtube.svg"
   xmlns:inkscape="http://www.inkscape.org/namespaces/inkscape"
   xmlns:sodipodi="http://sodipodi.sourceforge.net/DTD/sodipodi-0.dtd"
   xmlns="http://www.w3.org/2000/svg"
   xmlns:svg="http://www.w3.org/2000/svg"><sodipodi:namedview
     id="namedview7"
     pagecolor="#ffffff"
     bordercolor="#000000"
     borderopacity="0.25"
     inkscape:showpageshadow="2"
     inkscape:pageopacity="0.0"
     inkscape:pagecheckerboard="0"
     inkscape:deskcolor="#d1d1d1"
     inkscape:document-units="mm"
     showgrid="false"
     inkscape:zoom="1"
     inkscape:cx="196.5"
     inkscape:cy="242.5"
     inkscape:window-width="1920"
     inkscape:window-height="991"
     inkscape:window-x="-9"
     inkscape:window-y="-9"
     inkscape:window-maximized="1"
     inkscape:current-layer="layer1"
     showguides="true" /><defs
     id="defs2" /><g
     inkscape:label="Layer 1"
     inkscape:groupmode="layer"
     id="layer1"
     transform="translate(-42.425968,-54.408925)"><path
       style="display:inline;fill:#ff0000;fill-opacity:1;stroke-width:0.264583"
       d="M 103.70462,189.82929 C 46.875955,182.87448 22.290874,115.89219 61.634132,75.207845 103.9841,31.414303 178.18482,61.377431 178.18482,122.27239 c 0,40.0507 -35.57439,72.31827 -74.4802,67.5569 z"
       id="path2419"
       inkscape:label="youtube"
       sodipodi:nodetypes="ssss" /><path
       d="m 139.03232,151.37856 c 5.72069,-1.03709 10.62607,-5.64294 12.12048,-11.38035 0.68969,-2.6479 0.68969,-32.25839 0,-34.90631 -1.49441,-5.737416 -6.39979,-10.343265 -12.12048,-11.380358 -2.28615,-0.414448 -53.788136,-0.454321 -55.955345,-0.04332 -5.526676,1.048114 -9.858196,4.637149 -11.997401,9.940858 -1.123979,2.78666 -1.123979,35.08531 0,37.87199 2.091762,5.18607 6.42739,8.8478 11.738344,9.91381 1.919299,0.38523 54.082902,0.37012 56.214402,-0.0164 z m -39.052393,-28.8335 c 0,-12.77212 0,-12.77212 1.018523,-12.2333 2.43213,1.28669 20.85168,12.0931 20.85168,12.2333 0,0.14021 -18.41955,10.94662 -20.85168,12.2333 -1.018523,0.53882 -1.018523,0.53882 -1.018523,-12.2333 z"
       style="display:inline;fill:#ffffff;fill-opacity:1;stroke-width:0.303753"
       id="path22762" /></g></svg>
