<?xml version="1.0" encoding="UTF-8" standalone="no"?>
<!-- Created with Inkscape (http://www.inkscape.org/) -->

<svg
   width="43.393864mm"
   height="76.266891mm"
   viewBox="0 0 43.393864 76.266892"
   version="1.1"
   id="svg185"
   xml:space="preserve"
   sodipodi:docname="futo.svg"
   inkscape:version="1.2.2 (732a01da63, 2022-12-09)"
   xmlns:inkscape="http://www.inkscape.org/namespaces/inkscape"
   xmlns:sodipodi="http://sodipodi.sourceforge.net/DTD/sodipodi-0.dtd"
   xmlns="http://www.w3.org/2000/svg"
   xmlns:svg="http://www.w3.org/2000/svg"><sodipodi:namedview
     id="namedview187"
     pagecolor="#ffffff"
     bordercolor="#000000"
     borderopacity="0.25"
     inkscape:showpageshadow="2"
     inkscape:pageopacity="0.0"
     inkscape:pagecheckerboard="0"
     inkscape:deskcolor="#d1d1d1"
     inkscape:document-units="mm"
     showgrid="false"
     inkscape:zoom="0.3581229"
     inkscape:cx="-1270.5136"
     inkscape:cy="258.29122"
     inkscape:window-width="1920"
     inkscape:window-height="991"
     inkscape:window-x="-9"
     inkscape:window-y="-9"
     inkscape:window-maximized="1"
     inkscape:current-layer="layer1" /><defs
     id="defs182" /><g
     inkscape:label="Layer 1"
     inkscape:groupmode="layer"
     id="layer1"
     transform="translate(-252.95794,-23.507109)"><path
       style="fill:#000000;stroke-width:0.254"
       d="m 256.36501,99.181732 c -4.1803,-1.946671 -4.6058,-7.195482 -0.76575,-9.445907 0.63182,-0.370271 1.60594,-0.73454 2.16468,-0.809485 0.55875,-0.07494 1.01593,-0.228199 1.01593,-0.340566 0,-0.112367 -0.4572,-0.461259 -1.01598,-0.775317 -1.25537,-0.705551 -2.16933,-2.394493 -1.9336,-3.573147 0.38108,-1.905295 1.82898,-3.152382 3.99781,-3.443283 0.53693,-0.07202 1.07541,-0.258994 1.1966,-0.415501 0.1212,-0.156509 0.58788,-1.770461 1.03705,-3.586561 1.00411,-4.05973 1.81445,-6.026716 3.52954,-8.567565 1.51511,-2.24459 1.77937,-2.842168 2.08968,-4.725416 0.35087,-2.129482 -0.45177,-7.403163 -1.41798,-9.316623 -0.21263,-0.421084 -0.88834,-1.083023 -1.50155,-1.470978 l -1.91757,-13.125444 -1.49855,-2.593782 c -0.8242,-1.426571 -1.68143,-2.795892 -1.905,-3.042915 -0.31821,-0.351615 -0.40645,-1.027331 -0.40645,-3.112112 0,-2.6273 0.0102,-2.672761 0.762,-3.393021 0.6891,-0.660202 0.762,-0.883442 0.762,-2.333521 v -1.603479 h 2.159 2.159 v 0.889 c 0,1.050991 0.732,1.905 1.63286,1.905 0.90155,0 1.41514,-0.65186 1.41514,-1.796143 v -0.997857 h 2.413 2.413 v 1.016 c 0,1.168228 0.68118,2.032 1.60246,2.032 0.98369,0 1.4866,-0.572399 1.63137,-1.856945 l 0.13423,-1.191055 h 1.99898 1.99896 v 1.016 c 0,1.664536 1.3814,2.533998 2.81069,1.769065 0.38448,-0.205758 0.49131,-0.537183 0.49131,-1.524 v -1.261065 h 2.413 2.413 v 1.617246 c 0,1.605397 0.007,1.622176 1.016,2.289604 l 1.016,0.672359 v 2.777774 c 0,2.019518 -0.091,2.83322 -0.33322,2.980896 -0.18326,0.111717 -1.03611,1.435513 -1.8952,2.941795 l -1.56197,2.738676 -0.47934,11.526131 c 0,0 -0.66286,1.153805 -1.56345,1.731719 -0.93733,0.601487 -1.34701,1.067757 -1.63802,1.864367 -1.19545,3.272335 -1.59309,8.480608 -0.80807,10.584221 0.23396,0.626966 0.99768,1.967781 1.69715,2.979585 1.71691,2.483627 2.37398,4.060375 3.50649,8.414494 0.55228,2.123346 1.11357,3.76873 1.31979,3.868951 0.19738,0.09591 0.91183,0.304355 1.5877,0.463212 0.67587,0.158854 1.50289,0.486603 1.83782,0.728325 0.67251,0.485381 1.63233,2.237308 1.63233,2.979496 0,1.004357 -1.01283,2.571671 -2.03203,3.144492 -0.55877,0.314058 -1.01597,0.66295 -1.01597,0.775317 0,0.112367 0.45717,0.265621 1.01592,0.340566 0.55875,0.07494 1.53287,0.439214 2.16469,0.809485 3.84005,2.250425 3.41455,7.499236 -0.76576,9.445907 l -1.27185,0.59227 h -17.018 -17.018 z"
       id="path505"
       sodipodi:nodetypes="ssssssssssssccssssscccssscccssscccssscccsccsssccsssssssssssssscccs"
       inkscape:label="bastya" /></g></svg>
