<?xml version="1.0" encoding="UTF-8" standalone="no"?>
<!-- Created with Inkscape (http://www.inkscape.org/) -->

<svg
   width="43.318291mm"
   height="97.120667mm"
   viewBox="0 0 43.318291 97.120667"
   version="1.1"
   id="svg185"
   xml:space="preserve"
   inkscape:version="1.2.2 (732a01da63, 2022-12-09)"
   sodipodi:docname="futo.svg"
   xmlns:inkscape="http://www.inkscape.org/namespaces/inkscape"
   xmlns:sodipodi="http://sodipodi.sourceforge.net/DTD/sodipodi-0.dtd"
   xmlns="http://www.w3.org/2000/svg"
   xmlns:svg="http://www.w3.org/2000/svg"><sodipodi:namedview
     id="namedview187"
     pagecolor="#ffffff"
     bordercolor="#000000"
     borderopacity="0.25"
     inkscape:showpageshadow="2"
     inkscape:pageopacity="0.0"
     inkscape:pagecheckerboard="0"
     inkscape:deskcolor="#d1d1d1"
     inkscape:document-units="mm"
     showgrid="false"
     inkscape:zoom="0.3581229"
     inkscape:cx="-837.70126"
     inkscape:cy="336.47667"
     inkscape:window-width="1920"
     inkscape:window-height="991"
     inkscape:window-x="-9"
     inkscape:window-y="-9"
     inkscape:window-maximized="1"
     inkscape:current-layer="layer1" /><defs
     id="defs182" /><g
     inkscape:label="Layer 1"
     inkscape:groupmode="layer"
     id="layer1"
     transform="translate(-138.73218,-2.5773482)"><path
       style="fill:#000000;stroke-width:0.254"
       d="m 142.70187,99.449554 c -0.48895,-0.15558 -1.47638,-0.867895 -2.19426,-1.582922 -1.07084,-1.066569 -1.3619,-1.553152 -1.62065,-2.70933 -0.61475,-2.747109 0.63818,-5.430464 3.1111,-6.662762 0.72136,-0.359469 1.57485,-0.653578 1.89667,-0.653578 0.83388,0 0.72395,-0.380776 -0.29106,-1.008088 -2.52207,-1.558719 -2.59382,-5.102702 -0.1398,-6.904411 0.34925,-0.256415 1.18788,-0.568355 1.86365,-0.693199 0.67574,-0.124846 1.32481,-0.32561 1.44236,-0.446146 0.11755,-0.120535 0.57742,-1.819356 1.02194,-3.775156 1.05123,-4.625233 1.92329,-6.971187 3.51193,-9.447743 1.91359,-2.983108 2.162,-3.793546 2.16464,-7.062257 0.003,-1.984459 -0.1714,-3.603541 -0.59707,-5.588 -0.54075,-2.520732 -0.68443,-2.868529 -1.46922,-3.556 -2.10832,-1.8469 -2.35023,-2.13473 -2.35023,-2.796438 0,-0.372082 0.33617,-1.152401 0.74704,-1.734038 0.41089,-0.58164 0.8229,-1.482197 0.91561,-2.001241 0.12439,-0.696252 0.45627,-1.179444 1.26566,-1.842683 1.45283,-1.190496 1.81326,-2.26755 1.39626,-4.172514 -0.44465,-2.031299 -1.57205,-4.274531 -3.18307,-6.333483 l -1.3955,-1.783519 V 24.092578 19.48911 l 0.87414,0.66674 0.87414,0.666742 0.27739,-1.098314 c 0.91435,-3.620386 2.69875,-7.073117 5.49453,-10.631698 1.12144,-1.427414 1.20358,-1.6310305 1.15362,-2.8597276 -0.064,-1.5746196 0.54333,-2.7359711 1.75981,-3.3650377 2.19921,-1.1372545 4.74881,1.2503988 4.21033,3.9428725 -0.11958,0.5978449 0.0274,0.9493936 0.76617,1.832516 2.63393,3.1486448 4.82843,7.1634118 5.59549,10.2367588 0.24407,0.9779 0.47658,1.826816 0.51671,1.886483 0.0401,0.05967 0.39235,-0.19751 0.7827,-0.5715 0.39037,-0.373992 0.78923,-0.679983 0.88636,-0.679983 0.0971,0 0.17661,2.062406 0.17661,4.583128 v 4.583125 l -1.3144,1.576375 c -1.63655,1.962703 -3.24859,5.324343 -3.43929,7.172038 -0.18357,1.778713 0.22563,2.738681 1.54518,3.6249 0.80404,0.540001 1.07714,0.908441 1.19055,1.606197 0.081,0.498 0.39429,1.294655 0.69632,1.770344 1.12811,1.776814 1.18196,1.96343 0.79352,2.751018 -0.1985,0.40243 -0.87523,1.11788 -1.50388,1.589888 -0.8698,0.653059 -1.24542,1.164755 -1.57145,2.140714 -0.64778,1.939143 -1.22083,5.578511 -1.22174,7.759144 0,2.562345 0.59611,4.364243 2.37863,7.177212 1.57061,2.478527 2.32456,4.555239 3.44968,9.501843 0.39167,1.722011 0.83058,3.249381 0.97536,3.394156 0.14478,0.144778 0.8051,0.364462 1.46741,0.488193 3.93019,0.734243 4.97144,5.549377 1.64391,7.602289 -1.17582,0.725419 -1.28239,1.005436 -0.38265,1.005436 1.6953,0 4.13609,1.862475 4.83329,3.68811 0.29723,0.778239 0.39423,1.617064 0.32065,2.772626 -0.12946,2.032963 -1.00396,3.432213 -2.86385,4.582254 l -1.24206,0.76801 -17.16509,0.04023 c -12.014,0.02816 -17.43187,-0.04466 -18.05409,-0.242638 z"
       id="path501"
       inkscape:label="futo" /></g></svg>
