<?xml version="1.0" encoding="UTF-8" standalone="no"?>
<!-- Created with Inkscape (http://www.inkscape.org/) -->

<svg
   width="47.19207mm"
   height="85.299843mm"
   viewBox="0 0 47.19207 85.299843"
   version="1.1"
   id="svg185"
   xml:space="preserve"
   inkscape:version="1.2.2 (732a01da63, 2022-12-09)"
   xmlns:inkscape="http://www.inkscape.org/namespaces/inkscape"
   xmlns:sodipodi="http://sodipodi.sourceforge.net/DTD/sodipodi-0.dtd"
   xmlns="http://www.w3.org/2000/svg"
   xmlns:svg="http://www.w3.org/2000/svg"><sodipodi:namedview
     id="namedview187"
     pagecolor="#ffffff"
     bordercolor="#000000"
     borderopacity="0.25"
     inkscape:showpageshadow="2"
     inkscape:pageopacity="0.0"
     inkscape:pagecheckerboard="0"
     inkscape:deskcolor="#d1d1d1"
     inkscape:document-units="mm"
     showgrid="false"
     inkscape:zoom="1.0129245"
     inkscape:cx="-127.35401"
     inkscape:cy="117.97523"
     inkscape:window-width="1920"
     inkscape:window-height="991"
     inkscape:window-x="-9"
     inkscape:window-y="-9"
     inkscape:window-maximized="1"
     inkscape:current-layer="layer1" /><defs
     id="defs182" /><g
     inkscape:label="Layer 1"
     inkscape:groupmode="layer"
     id="layer1"
     transform="translate(-259.78024,-170.16847)"><path
       style="fill:#000000;stroke-width:0.254"
       d="m 264.5491,255.12001 c -1.42654,-0.38362 -2.80294,-1.42304 -3.85654,-2.91239 -0.95846,-1.35484 -1.20345,-3.97787 -0.53502,-5.72813 0.7539,-1.97404 2.84564,-3.65895 5.03583,-4.05641 1.14262,-0.20737 1.21011,-0.48951 0.21559,-0.90145 -1.41561,-0.58635 -2.56509,-2.42953 -2.56509,-4.11304 0,-1.0922 0.85085,-2.79273 1.71376,-3.42527 0.82868,-0.60739 2.192,-1.10807 3.01729,-1.10807 0.33396,0 0.75253,-0.24867 0.96193,-0.5715 0.36606,-0.56439 0.5272,-1.0444 2.28427,-6.80499 1.06865,-3.50355 1.56124,-4.1037 3.53065,-4.30182 l 1.3191,-0.13269 -0.007,-1.778 c -0.004,-0.9779 -0.28318,-2.97815 -0.62042,-4.445 -0.65092,-2.83142 -0.62766,-2.79472 -3.15747,-4.98061 -1.14968,-0.9934 -1.18478,-1.84486 -0.13963,-3.38742 0.42073,-0.62096 0.8187,-1.39248 0.88438,-1.7145 0.0657,-0.322 0.1758,-0.85949 0.24471,-1.19436 0.0712,-0.34615 0.50863,-0.8351 1.01368,-1.1331 0.8599,-0.50734 1.90612,-1.87757 1.90808,-2.49893 0,-0.16715 -0.61661,-0.71384 -1.37137,-1.21483 -6.31211,-4.18973 -8.52229,-12.88671 -5.0685,-19.94425 1.31882,-2.69492 4.31244,-5.67243 6.9959,-6.95828 4.53083,-2.17107 9.3158,-2.19555 13.78862,-0.0706 3.57131,1.69666 6.70397,5.15711 8.00529,8.8429 0.79601,2.25448 0.98974,6.7945 0.38867,9.10794 -0.9095,3.5006 -3.60273,7.29658 -6.49257,9.15098 -0.6925,0.4444 -1.2591,0.86451 -1.2591,0.9336 0,0.5982 1.03164,2.01453 1.9051,2.61547 0.89781,0.61772 1.10228,0.91841 1.2445,1.83007 0.0936,0.59997 0.52809,1.59329 0.9656,2.20736 1.28593,1.80485 0.94356,3.02331 -1.22633,4.36438 -0.44153,0.27287 -0.99228,0.89545 -1.22385,1.38346 -0.57242,1.20627 -1.71067,6.81518 -1.61519,7.95909 l 0.0772,0.92459 1.42148,0.127 c 0.78182,0.0699 1.59797,0.27348 1.81366,0.4525 0.55281,0.4588 1.34499,2.39834 2.11262,5.17243 0.76127,2.75112 1.62555,5.29983 1.93538,5.70743 0.11847,0.15583 0.74333,0.3557 1.3886,0.44414 2.50703,0.34364 4.15589,2.11978 4.15432,4.47495 0,1.68859 -0.57272,2.75123 -2.01742,3.75061 -0.5557,0.38441 -1.01471,0.76592 -1.01999,0.84778 -0.005,0.0819 0.68435,0.34181 1.53258,0.57765 1.21344,0.33736 1.80589,0.69245 2.77904,1.66558 3.43007,3.43009 2.1905,8.94349 -2.39664,10.65977 -1.41297,0.52865 -1.71579,0.53688 -19.14266,0.52001 -13.59448,-0.0132 -17.98934,-0.0931 -18.92274,-0.34409 z"
       id="path489"
       inkscape:label="gyalog" /></g></svg>
