<?xml version="1.0" encoding="UTF-8" standalone="no"?>
<!-- Created with Inkscape (http://www.inkscape.org/) -->

<svg
   width="44.849506mm"
   height="104.32293mm"
   viewBox="0 0 44.849507 104.32293"
   version="1.1"
   id="svg185"
   xml:space="preserve"
   inkscape:version="1.2.2 (732a01da63, 2022-12-09)"
   xmlns:inkscape="http://www.inkscape.org/namespaces/inkscape"
   xmlns:sodipodi="http://sodipodi.sourceforge.net/DTD/sodipodi-0.dtd"
   xmlns="http://www.w3.org/2000/svg"
   xmlns:svg="http://www.w3.org/2000/svg"><sodipodi:namedview
     id="namedview187"
     pagecolor="#ffffff"
     bordercolor="#000000"
     borderopacity="0.25"
     inkscape:showpageshadow="2"
     inkscape:pageopacity="0.0"
     inkscape:pagecheckerboard="0"
     inkscape:deskcolor="#d1d1d1"
     inkscape:document-units="mm"
     showgrid="false"
     inkscape:zoom="0.3581229"
     inkscape:cx="-223.387"
     inkscape:cy="392.32342"
     inkscape:window-width="1920"
     inkscape:window-height="991"
     inkscape:window-x="-9"
     inkscape:window-y="-9"
     inkscape:window-maximized="1"
     inkscape:current-layer="layer1" /><defs
     id="defs182" /><g
     inkscape:label="Layer 1"
     inkscape:groupmode="layer"
     id="layer1"
     transform="translate(-30.669362,4.61504)"><path
       style="fill:#000000;stroke-width:0.254"
       d="m 34.532682,99.433774 c -1.285072,-0.468925 -2.707889,-1.784617 -3.338378,-3.087035 -0.832091,-1.718874 -0.656907,-4.257233 0.397338,-5.75724 1.087821,-1.547779 2.517125,-2.47239 4.114355,-2.661559 0.732526,-0.08676 1.331867,-0.211166 1.331867,-0.276464 0,-0.0653 -0.561858,-0.649455 -1.248572,-1.29812 -1.568976,-1.482045 -1.89241,-2.861724 -1.093994,-4.666676 0.725422,-1.639939 1.81799,-2.322825 3.905017,-2.440752 l 1.700822,-0.09611 0.42356,-1.940931 c 0.904588,-4.145224 1.655361,-6.880378 2.659235,-9.687931 1.163122,-3.252922 2.267636,-7.467285 2.962329,-11.303 0.361251,-1.994639 0.459557,-3.84887 0.457855,-8.636 -0.002,-5.389692 -0.06905,-6.402459 -0.579473,-8.740981 -0.63799,-2.923014 -0.901238,-3.578019 -1.438021,-3.578019 -0.198753,0 -0.836968,-0.45243 -1.41826,-1.005398 -0.906567,-0.862394 -1.032096,-1.106254 -0.882553,-1.7145 0.09588,-0.390007 0.568243,-1.115581 1.049688,-1.612387 0.725137,-0.748276 0.849366,-1.033229 0.723912,-1.660492 -0.216519,-1.082594 0.500462,-1.875107 1.861551,-2.057667 l 1.076904,-0.144444 v -1.310191 c 0,-2.92099 -1.623733,-6.891487 -3.831059,-9.368053 L 42.117864,14.98855 v -2.426004 -2.426005 l 0.9525,-0.2524406 C 44.787483,9.4290112 46.402778,9.1038175 48.241451,8.8430484 49.690181,8.6375802 50.149957,8.4604863 50.547814,7.954691 50.821121,7.6072393 51.265039,7.32296 51.5343,7.32296 c 0.442623,0 0.489564,-0.1948383 0.489564,-2.032 v -2.032 H 50.48832 c -1.291666,0 -1.634566,-0.099019 -2.159,-0.6234557 C 46.808416,1.1146031 48.069158,-0.55104 50.741251,-0.55104 h 1.282613 v -1.524 c 0,-1.8218963 0.527449,-2.54 1.865633,-2.54 1.25903,0 1.690367,0.6294907 1.690367,2.466909 v 1.53791154 l 1.636624,0.10421112 c 1.954096,0.12442952 2.681377,0.63459106 2.681377,1.88090044 0,1.253612 -0.946404,1.8840679 -2.828255,1.8840679 h -1.489746 v 2.00025 2.00025 l 0.741571,0.1483131 c 0.440205,0.088042 0.808442,0.3590011 0.906117,0.66675 0.0905,0.2851404 0.259784,0.5184369 0.37619,0.5184369 0.482523,0 6.049746,1.0241305 6.920214,1.2730251 l 0.943092,0.2696569 0.07291,2.34016 0.07291,2.340158 -1.048688,1.27 c -2.458384,2.977198 -3.904312,6.450734 -3.904312,9.379285 0,1.620368 0.01913,1.669715 0.647613,1.669715 0.356187,0 0.993028,0.17862 1.415204,0.396936 0.68879,0.356187 0.76119,0.506123 0.705229,1.4605 -0.05438,0.92742 0.05709,1.182238 0.870796,1.990664 1.508539,1.498745 1.261155,2.705933 -0.816488,3.98432 -1.202619,0.739978 -1.265126,0.836511 -1.65686,2.558829 -0.764743,3.362318 -1.006402,5.737769 -1.010069,9.928751 -0.0058,6.660109 0.983404,12.396617 3.306983,19.177 0.765983,2.2352 1.779278,5.714568 2.251764,7.73193 0.472488,2.017362 0.925317,3.931887 1.006287,4.2545 0.123698,0.492854 0.312783,0.58657 1.183492,0.58657 2.395452,0 4.034732,1.649997 4.033099,4.059461 -0.001,1.678021 -0.613314,2.832641 -1.906351,3.595553 -0.487686,0.287741 -0.886699,0.611566 -0.886699,0.719612 0,0.108047 0.430126,0.265227 0.955835,0.349291 1.468265,0.234785 3.218127,1.481348 4.038407,2.876873 0.608307,1.034897 0.720758,1.50672 0.720758,3.024129 0,1.557954 -0.102598,1.963869 -0.768716,3.041284 -0.476377,0.770524 -1.241496,1.535704 -2.011921,2.012081 L 71.495025,99.65196 53.440946,99.69871 C 39.711695,99.73426 35.18225,99.6708 34.532685,99.43377 Z"
       id="path497"
       inkscape:label="kiraly" /></g></svg>
