<?xml version="1.0" encoding="UTF-8" standalone="no"?>
<!-- Created with Inkscape (http://www.inkscape.org/) -->

<svg
   width="51.719753mm"
   height="98.42926mm"
   viewBox="0 0 51.719754 98.429261"
   version="1.1"
   id="svg185"
   xml:space="preserve"
   inkscape:version="1.2.2 (732a01da63, 2022-12-09)"
   sodipodi:docname="kiralyno.svg"
   xmlns:inkscape="http://www.inkscape.org/namespaces/inkscape"
   xmlns:sodipodi="http://sodipodi.sourceforge.net/DTD/sodipodi-0.dtd"
   xmlns="http://www.w3.org/2000/svg"
   xmlns:svg="http://www.w3.org/2000/svg"><sodipodi:namedview
     id="namedview187"
     pagecolor="#ffffff"
     bordercolor="#000000"
     borderopacity="0.25"
     inkscape:showpageshadow="2"
     inkscape:pageopacity="0.0"
     inkscape:pagecheckerboard="0"
     inkscape:deskcolor="#d1d1d1"
     inkscape:document-units="mm"
     showgrid="false"
     inkscape:zoom="0.7162458"
     inkscape:cx="212.21765"
     inkscape:cy="42.583147"
     inkscape:window-width="1920"
     inkscape:window-height="991"
     inkscape:window-x="-9"
     inkscape:window-y="-9"
     inkscape:window-maximized="1"
     inkscape:current-layer="layer1"
     showguides="true" /><defs
     id="defs182" /><g
     inkscape:label="Layer 1"
     inkscape:groupmode="layer"
     id="layer1"
     transform="translate(-26.319905,-16.802277)"><path
       style="fill:#000000;stroke-width:0.143726"
       d="m 26.614842,113.03973 c 0.06464,-2.37699 0.217153,-2.98236 0.942038,-3.73916 0.209427,-0.21864 0.627215,-0.46389 0.928419,-0.545 0.667341,-0.17969 0.649998,-0.22584 -0.684549,-1.82151 -1.524109,-1.82232 -1.765081,-2.56685 -1.205142,-3.72353 0.433828,-0.89617 1.687233,-1.96543 4.020105,-3.429471 3.919649,-2.45986 5.903364,-4.14891 6.685525,-5.69243 0.442087,-0.87242 0.43935,-0.93724 -0.04367,-1.03429 -0.582394,-0.11703 -1.378858,-0.70281 -1.52654,-1.12275 -0.200308,-0.56957 0.154301,-2.031722 0.859041,-2.294072 0.324555,-0.12082 0.701899,-0.31296 0.838543,-0.42699 0.35397,-0.29537 2.667905,-4.295938 3.244745,-6.760316 1.903141,-8.130611 3.855368,-6.049085 4.088958,-16.304515 l 0.08266,-3.62907 -0.901232,-1.4e-4 c -1.14417,-2.9e-4 -3.120198,-0.34474 -3.701368,-0.64527 -0.871288,-0.45056 -1.257149,-1.69365 -0.856303,-2.75866 0.199077,-0.52893 1.0695,-1.417949 1.605777,-1.640082 0.461075,-0.190984 0.457174,-0.120035 0.09136,-1.661176 -0.245323,-1.033529 -0.007,-1.355981 1.521509,-2.058826 0.656271,-0.301765 1.232243,-0.611798 1.279933,-0.688964 0.04769,-0.07717 0.128498,-0.589906 0.179571,-1.139422 l 0.09286,-0.99912 -0.444711,-0.184206 c -0.803524,-0.332831 -0.708875,-2.063216 0.147803,-2.234547 l 0.442713,-0.08854 -0.08017,-2.70277 c -0.224722,-7.576044 -5.185113,-1.518392 -10.323185,-12.053148 -1.297874,-2.66107 -2.359769,-4.976652 -2.359769,-5.145735 0,-0.237728 0.211885,-0.40658 0.934603,-0.74478 1.443341,-0.675421 1.895411,-0.686429 3.203701,-0.07802 1.638542,0.761993 1.861674,0.794137 2.040713,0.293992 0.591444,-1.652209 2.077109,-3.142236 4.338231,-4.350983 1.174259,-0.627734 2.139541,-0.944402 3.333588,-1.09358 l 0.801995,-0.100197 -0.482129,-0.594718 c -1.880179,-2.319247 -1.397703,-4.308616 1.174441,-4.842589 1.419133,-0.294611 8.051431,-0.269859 9.473495,0.0842 1.985697,0.494385 2.478713,3.130694 1.159162,4.758392 l -0.482129,0.594718 0.817714,0.102166 c 3.127348,0.390734 6.832142,2.979166 7.614126,5.319765 0.189889,0.568362 0.580115,0.538637 2.062816,-0.157155 0.966334,-0.453472 1.223588,-0.517216 1.779695,-0.440993 0.953641,0.130709 2.37848,0.885164 2.37848,1.259404 0,0.163795 -1.061895,2.475046 -2.359769,5.136116 -5.138073,10.534756 -8.988337,4.477104 -9.213057,12.053093 l -0.08017,2.702769 0.452118,0.09042 c 0.616891,0.123373 0.889916,1.527785 0.524653,1.931398 -0.141541,0.1564 -0.386799,0.325451 -0.545017,0.375668 -0.264158,0.08384 -0.280009,0.173713 -0.193951,1.099674 0.05155,0.554605 0.132739,1.071508 0.18043,1.148674 0.04769,0.07717 0.620104,0.385564 1.272026,0.685329 1.63885,0.753568 1.95273,1.307333 1.438544,2.537955 -0.311679,0.745954 -0.270336,0.998222 0.195199,1.191053 0.525114,0.217508 1.395696,1.110998 1.592811,1.634718 0.400846,1.06501 0.01498,2.30809 -0.856303,2.75865 -0.580987,0.30044 -2.557075,0.64503 -3.700467,0.64527 l -0.900329,1.5e-4 0.08383,3.70093 c 0.240453,10.61555 2.129798,8.138533 4.096681,15.991853 0.467224,1.86553 1.720186,4.300918 2.609235,6.021278 0.507951,0.9829 0.635873,1.12893 1.09859,1.25403 1.106171,0.29907 1.58528,1.956292 1.1092,2.682882 -0.23979,0.36597 -1.201743,0.93022 -1.585855,0.93022 -0.303271,0 -0.279256,0.18267 0.13026,0.99081 0.760477,1.50072 2.741341,3.21477 6.259795,5.41662 2.311214,1.446348 3.105494,2.030548 3.786758,2.785168 0.61695,0.68338 0.956181,1.38158 0.956181,1.96799 0,0.53672 -0.481249,1.48327 -1.133379,2.22921 -0.947675,1.08399 -1.602113,2.00865 -1.517987,2.14477 0.0447,0.0723 0.236897,0.1315 0.427103,0.1315 0.478879,0 1.281276,0.7451 1.588455,1.47502 0.195673,0.46496 0.270812,1.1274 0.317682,2.80081 l 0.06139,2.19187 H 52.169079 26.55524 Z"
       id="path363"
       sodipodi:nodetypes="sssssssssssssccssssssscsscsssssssscsssscssssssscssssssssssccssssssssssssssscccs" /></g></svg>
