<?xml version="1.0" encoding="UTF-8" standalone="no"?>
<!-- Created with Inkscape (http://www.inkscape.org/) -->

<svg
   width="53.803318mm"
   height="86.218536mm"
   viewBox="0 0 53.803318 86.218537"
   version="1.1"
   id="svg185"
   xml:space="preserve"
   sodipodi:docname="futo.svg"
   inkscape:version="1.2.2 (732a01da63, 2022-12-09)"
   xmlns:inkscape="http://www.inkscape.org/namespaces/inkscape"
   xmlns:sodipodi="http://sodipodi.sourceforge.net/DTD/sodipodi-0.dtd"
   xmlns="http://www.w3.org/2000/svg"
   xmlns:svg="http://www.w3.org/2000/svg"><sodipodi:namedview
     id="namedview187"
     pagecolor="#ffffff"
     bordercolor="#000000"
     borderopacity="0.25"
     inkscape:showpageshadow="2"
     inkscape:pageopacity="0.0"
     inkscape:pagecheckerboard="0"
     inkscape:deskcolor="#d1d1d1"
     inkscape:document-units="mm"
     showgrid="false"
     inkscape:zoom="0.3581229"
     inkscape:cx="-1021.9955"
     inkscape:cy="294.59161"
     inkscape:window-width="1920"
     inkscape:window-height="991"
     inkscape:window-x="-9"
     inkscape:window-y="-9"
     inkscape:window-maximized="1"
     inkscape:current-layer="layer1" /><defs
     id="defs182" /><g
     inkscape:label="Layer 1"
     inkscape:groupmode="layer"
     id="layer1"
     transform="translate(-187.19655,-13.560033)"><path
       style="fill:#000000;stroke-width:0.254"
       d="m 197.61408,99.264452 c -1.28334,-0.782437 -1.57221,-1.784609 -1.57221,-5.45449 0,-2.202843 0.11328,-3.462424 0.36571,-4.066596 0.49027,-1.173378 1.73411,-1.900258 3.25379,-1.901454 1.03192,-7.62e-4 1.2065,-0.07357 1.2065,-0.502811 0,-0.276024 -0.22817,-0.876099 -0.50706,-1.3335 -0.38491,-0.631312 -0.50727,-1.281079 -0.508,-2.697449 -0.003,-3.057629 0.9889,-4.10319 3.88691,-4.10319 1.57769,0 1.66134,-0.03123 1.89738,-0.708337 0.20543,-0.589339 0.14529,-0.834695 -0.35804,-1.4605 -1.49614,-1.860205 -2.09133,-5.162959 -1.6287,-9.037699 0.43818,-3.670048 0.8143,-4.760872 2.91623,-8.457971 5.57415,-9.804428 7.13757,-15.908521 4.43285,-17.307195 -0.55603,-0.287528 -0.96949,-0.315582 -1.82511,-0.123832 -1.43404,0.321373 -2.80917,0.101018 -4.28927,-0.687311 -0.91245,-0.485991 -1.38611,-0.592506 -2.032,-0.456931 -0.99429,0.208709 -1.11954,0.210655 -5.48915,0.08524 -2.63418,-0.07561 -3.4402,-0.02073 -3.66448,0.249555 -0.47361,0.570659 -1.64425,1.074981 -2.49525,1.074981 -1.2083,0 -2.05554,-0.640306 -3.13072,-2.366051 -0.89281,-1.432999 -0.96162,-1.671266 -0.81936,-2.83765 0.0854,-0.700316 0.18321,-1.940727 0.21732,-2.756471 0.052,-1.243058 0.16477,-1.561729 0.69673,-1.968411 0.34909,-0.26688 0.77043,-0.597393 0.93629,-0.734472 0.16589,-0.137078 0.73739,-0.349493 1.27,-0.472038 1.01907,-0.234458 9.45289,-3.583252 11.0378,-4.382755 0.56477,-0.284886 1.22624,-0.955777 1.69743,-1.721543 0.55093,-0.895389 0.98298,-1.301075 1.50856,-1.416508 0.78516,-0.172453 5.47497,-2.722189 6.21914,-3.381199 0.28864,-0.255618 0.4445,-0.763105 0.4445,-1.447397 0,-0.621159 0.26665,-1.588869 0.64953,-2.357208 0.70708,-1.418913 2.67977,-3.41339 2.85529,-2.88682 0.0577,0.173053 -0.15235,1.204832 -0.46673,2.292843 -0.71006,2.457295 -0.57922,3.133677 0.70516,3.645954 l 0.95361,0.38036 0.82657,-1.547025 c 0.45461,-0.850862 0.82657,-1.923806 0.82657,-2.384316 0,-0.982441 0.40525,-1.080419 1.24249,-0.300398 0.53919,0.502323 0.5654,0.669963 0.40711,2.6035 -0.15954,1.948993 -0.12763,2.145675 0.5604,3.455944 0.52283,0.995655 1.34666,1.910251 2.90741,3.227682 2.60266,2.196933 6.37522,6.376394 9.41954,10.435486 3.01374,4.018336 3.07904,4.176827 2.86024,6.941236 -0.17767,2.24488 -0.17452,2.261906 0.74471,4.038199 1.0955,2.116892 2.49547,6.220848 3.04693,8.931834 1.53259,7.534432 0.0718,15.87011 -3.91731,22.353239 -0.41885,0.68069 -0.76152,1.293051 -0.76152,1.3608 0,0.06775 0.45887,0.123185 1.01973,0.123185 0.80632,0 1.21768,0.181402 1.96561,0.866833 0.91775,0.841053 0.94861,0.926857 1.03751,2.884788 0.0993,2.185865 -0.27343,3.357057 -1.23149,3.869786 -0.93963,0.502882 -0.61169,1.014593 0.65026,1.014593 0.63559,0 1.49091,0.173385 1.90068,0.3853 1.30092,0.672727 1.5157,1.463939 1.5157,5.5837 0,2.817805 -0.0925,3.887137 -0.38529,4.453313 -0.81603,1.578021 0.0887,1.515778 -22.01759,1.514737 -19.75459,-0.001 -20.1583,-0.01082 -20.98291,-0.51356 z"
       id="path503"
       inkscape:label="lovag" /></g></svg>
