<?xml version="1.0" encoding="UTF-8" standalone="no"?>
<!-- Created with Inkscape (http://www.inkscape.org/) -->

<svg
   width="16"
   height="16"
   viewBox="0 0 4.2333333 4.2333333"
   version="1.1"
   id="svg5"
   xml:space="preserve"
   inkscape:version="1.2.2 (732a01da63, 2022-12-09)"
   sodipodi:docname="favicon.svg"
   inkscape:export-filename="favicon.png"
   inkscape:export-xdpi="27.594807"
   inkscape:export-ydpi="27.594807"
   xmlns:inkscape="http://www.inkscape.org/namespaces/inkscape"
   xmlns:sodipodi="http://sodipodi.sourceforge.net/DTD/sodipodi-0.dtd"
   xmlns="http://www.w3.org/2000/svg"
   xmlns:svg="http://www.w3.org/2000/svg"><sodipodi:namedview
     id="namedview7"
     pagecolor="#ffffff"
     bordercolor="#000000"
     borderopacity="0.25"
     inkscape:showpageshadow="2"
     inkscape:pageopacity="0.0"
     inkscape:pagecheckerboard="0"
     inkscape:deskcolor="#d1d1d1"
     inkscape:document-units="mm"
     showgrid="false"
     inkscape:zoom="28.615728"
     inkscape:cx="7.5308237"
     inkscape:cy="10.850676"
     inkscape:window-width="1920"
     inkscape:window-height="991"
     inkscape:window-x="-9"
     inkscape:window-y="-9"
     inkscape:window-maximized="1"
     inkscape:current-layer="layer1" /><defs
     id="defs2" /><g
     inkscape:label="Layer 1"
     inkscape:groupmode="layer"
     id="layer1"
     transform="translate(-41.909206,107.20933)"><path
       style="fill:#141b41;fill-opacity:1;stroke-width:0.0088995"
       d="m 43.878131,-104.44958 c -0.124877,-0.006 -0.359264,-0.0358 -0.413827,-0.0526 -0.01468,-0.004 -0.05073,-0.0128 -0.0801,-0.0186 -0.14536,-0.0284 -0.494524,-0.16721 -0.562245,-0.2234 -0.0094,-0.008 -0.01177,-0.0934 -0.01177,-0.43587 0,-0.26783 0.0031,-0.42608 0.0085,-0.42608 0.0047,0 0.02575,0.006 0.04672,0.0123 0.02097,0.007 0.08219,0.0251 0.136029,0.0407 0.05384,0.0155 0.113914,0.0337 0.133492,0.0404 0.01958,0.007 0.04962,0.0161 0.06674,0.0208 0.01713,0.004 0.107238,0.0307 0.200238,0.0576 0.09301,0.0269 0.231165,0.067 0.307033,0.0891 0.17867,0.0518 0.21771,0.0594 0.302582,0.0594 0.08536,0 0.124984,-0.008 0.302584,-0.0599 0.07587,-0.0222 0.169979,-0.0494 0.209137,-0.0603 0.03916,-0.0112 0.121255,-0.0348 0.182439,-0.0531 0.06119,-0.0182 0.129266,-0.0383 0.151292,-0.0447 0.02203,-0.007 0.07409,-0.0216 0.115693,-0.0339 0.04161,-0.0123 0.105677,-0.031 0.142392,-0.0413 0.03671,-0.0101 0.07375,-0.021 0.08233,-0.0236 0.01468,-0.004 0.01557,0.02 0.01557,0.42658 v 0.43125 l -0.03782,0.0185 c -0.0208,0.0101 -0.05184,0.0265 -0.06897,0.0363 -0.04736,0.0271 -0.211466,0.0945 -0.304337,0.12494 -0.09916,0.0326 -0.283724,0.0744 -0.394272,0.0893 -0.04406,0.006 -0.102128,0.0139 -0.129044,0.0178 -0.02692,0.003 -0.09416,0.008 -0.149429,0.008 -0.05526,7.8e-4 -0.105329,0.002 -0.111248,0.005 -0.006,10e-4 -0.06883,-3.1e-4 -0.139804,-0.003 z m -1.729314,-0.3591 c -0.04451,-0.0165 -0.06385,-0.0349 -0.08703,-0.0828 -0.01517,-0.0313 -0.0179,-0.0484 -0.0133,-0.0831 0.0078,-0.0581 0.05121,-0.16322 0.08491,-0.20515 l 0.02714,-0.0338 v -0.33425 c 0,-0.26183 0.0024,-0.33411 0.01112,-0.33358 0.0061,3.7e-4 0.02514,0.006 0.04227,0.0119 l 0.03115,0.0112 0.0045,0.33015 0.0045,0.33015 0.02345,0.0251 c 0.06771,0.0723 0.100129,0.21789 0.06499,0.29193 -0.03111,0.0656 -0.121042,0.0992 -0.193609,0.0722 z m 1.807328,-0.81621 c -0.06245,-0.007 -0.15787,-0.0309 -0.358348,-0.0919 -0.03916,-0.0119 -0.115249,-0.0344 -0.16909,-0.0499 -0.05384,-0.0155 -0.131935,-0.0382 -0.17354,-0.0503 -0.04161,-0.0121 -0.107688,-0.0314 -0.146842,-0.0428 -0.03916,-0.0113 -0.111248,-0.0326 -0.16019,-0.0471 -0.04895,-0.0146 -0.129043,-0.0373 -0.17799,-0.0506 -0.04895,-0.0132 -0.119031,-0.0335 -0.155741,-0.0448 -0.03671,-0.0114 -0.110799,-0.0334 -0.16464,-0.0486 -0.05384,-0.0154 -0.113914,-0.0334 -0.133493,-0.0401 -0.01958,-0.007 -0.09486,-0.0285 -0.167304,-0.0486 -0.19965,-0.0553 -0.229283,-0.0705 -0.19475,-0.10076 0.01766,-0.0155 0.03719,-0.0221 0.201863,-0.0693 0.167905,-0.0481 0.42925,-0.12405 0.565118,-0.16437 0.06118,-0.0182 0.13327,-0.0386 0.160191,-0.0456 0.02693,-0.007 0.05696,-0.0161 0.06675,-0.0202 0.0098,-0.004 0.06586,-0.0207 0.124593,-0.0366 0.05873,-0.016 0.134826,-0.0378 0.169089,-0.0484 0.03426,-0.0112 0.108351,-0.0326 0.164641,-0.0486 0.05629,-0.0161 0.126373,-0.0366 0.155741,-0.0457 0.09806,-0.0303 0.271133,-0.0788 0.331693,-0.0929 0.117633,-0.0274 0.253121,-0.0131 0.429213,0.0452 0.02203,0.007 0.108126,0.0328 0.19134,0.0567 0.08321,0.0239 0.187334,0.0543 0.231386,0.0674 0.112491,0.0336 0.41468,0.12128 0.436075,0.1265 0.0098,0.002 0.05585,0.0157 0.102341,0.0297 0.143691,0.043 0.366453,0.10783 0.427175,0.12434 0.03181,0.009 0.103902,0.0298 0.16019,0.047 0.05629,0.0172 0.124896,0.0376 0.152458,0.0454 0.05478,0.0156 0.09399,0.0417 0.08484,0.0565 -0.0075,0.0121 -0.104745,0.0457 -0.250645,0.0866 -0.06363,0.0179 -0.159745,0.0461 -0.213587,0.0628 -0.05384,0.0167 -0.16998,0.0509 -0.258085,0.0758 -0.08811,0.0251 -0.178212,0.0507 -0.200238,0.057 -0.02203,0.007 -0.07609,0.0222 -0.120144,0.0355 -0.07994,0.024 -0.428868,0.12595 -0.538419,0.15723 -0.03181,0.009 -0.12793,0.0367 -0.213587,0.0614 -0.08566,0.0247 -0.177767,0.0471 -0.204688,0.0498 -0.02692,0.002 -0.05696,0.006 -0.06674,0.008 -0.0098,0.001 -0.04877,-7e-4 -0.08663,-0.004 z m -0.264904,-0.18984 c 0.04161,-0.0118 0.105677,-0.03 0.142392,-0.0403 0.121781,-0.0343 0.178927,-0.0554 0.175745,-0.0649 -0.0017,-0.006 -0.03698,-0.019 -0.07831,-0.0306 -0.04135,-0.0116 -0.107215,-0.0307 -0.146371,-0.0423 -0.03916,-0.0117 -0.109238,-0.0322 -0.155741,-0.0458 -0.09747,-0.0283 -0.108766,-0.0348 -0.07407,-0.0429 0.03302,-0.008 0.346863,-0.0985 0.425602,-0.12319 0.01958,-0.006 0.0356,-0.0152 0.0356,-0.02 0,-0.009 -0.05503,-0.0264 -0.218037,-0.0708 -0.07954,-0.0217 -0.236025,-0.0658 -0.257135,-0.0725 -0.0069,-0.002 -0.01056,-0.006 -0.0083,-0.008 0.0022,-0.002 0.07191,-0.0242 0.154789,-0.0485 0.27484,-0.0811 0.310785,-0.0917 0.321999,-0.0947 0.0321,-0.009 -7.87e-4,-0.0231 -0.140167,-0.0618 -0.02203,-0.006 -0.08896,-0.0255 -0.148757,-0.0431 -0.05979,-0.0176 -0.115371,-0.032 -0.123514,-0.032 -0.0081,0 -0.04532,0.0101 -0.08263,0.0218 -0.09302,0.0298 -0.2773,0.0844 -0.352231,0.10436 -0.109855,0.0292 -0.107047,0.0317 0.106418,0.0928 0.203622,0.0583 0.202386,0.0579 0.197075,0.0632 -0.0045,0.004 -0.03682,0.0142 -0.27717,0.0828 -0.04895,0.0139 -0.117013,0.0335 -0.151257,0.0434 l -0.06226,0.0179 -0.200273,-0.0582 c -0.219272,-0.0637 -0.227782,-0.0645 -0.338213,-0.0308 -0.03182,0.0101 -0.09989,0.0303 -0.151292,0.0458 -0.05139,0.0155 -0.09837,0.0322 -0.104385,0.0372 -0.01454,0.0119 0.0015,0.0426 0.02237,0.0429 0.0084,1e-4 0.0493,0.0101 0.09091,0.0228 0.04161,0.0125 0.116814,0.0346 0.167131,0.0493 l 0.09149,0.0266 0.126552,-0.0373 c 0.227441,-0.0672 0.27759,-0.0809 0.295641,-0.081 0.0179,-1.6e-4 0.07501,0.0156 0.280333,0.0773 0.06119,0.0184 0.134411,0.0394 0.162726,0.0468 0.02832,0.008 0.04941,0.0155 0.04687,0.018 -0.0071,0.007 -0.089,0.0336 -0.182904,0.0591 -0.166327,0.0453 -0.196773,0.055 -0.19704,0.0635 -2.37e-4,0.008 0.05121,0.0245 0.272685,0.0891 0.03916,0.0114 0.105239,0.0307 0.146842,0.0429 0.09463,0.0276 0.0954,0.0276 0.186889,0.001 z m 0.845452,-3e-4 c 0.04161,-0.012 0.117696,-0.0343 0.16909,-0.0494 0.102835,-0.0303 0.248297,-0.071 0.254278,-0.071 0.0021,0 0.0037,-0.004 0.0037,-0.0112 -6e-5,-0.007 -0.05022,-0.0248 -0.126818,-0.0459 -0.155213,-0.0426 -0.24025,-0.0686 -0.249097,-0.0762 -0.0058,-0.004 0.127455,-0.0459 0.392888,-0.1207 0.07784,-0.0219 0.102678,-0.0355 0.08029,-0.044 -0.007,-0.002 -0.03864,-0.0121 -0.07046,-0.0212 -0.30007,-0.0853 -0.388931,-0.11131 -0.399792,-0.11711 -0.0082,-0.004 0.01409,-0.0149 0.06359,-0.03 0.04193,-0.0128 0.07944,-0.0232 0.08334,-0.0232 0.0086,0 0.144987,-0.0411 0.198457,-0.0599 0.04818,-0.017 0.04037,-0.0228 -0.06956,-0.0522 -0.04194,-0.0112 -0.102284,-0.0284 -0.134104,-0.0381 -0.188671,-0.0575 -0.282948,-0.0819 -0.302583,-0.0784 -0.02522,0.004 -0.306911,0.0877 -0.358853,0.10604 -0.01871,0.007 -0.03324,0.0158 -0.03227,0.0206 0.0015,0.007 0.04098,0.021 0.124145,0.0437 0.0073,0.002 0.04939,0.0143 0.09345,0.0273 0.04405,0.013 0.112135,0.033 0.151291,0.0446 0.03916,0.0115 0.08121,0.0247 0.09345,0.0294 0.02626,0.0101 0.02378,0.0114 -0.07119,0.0358 -0.03671,0.009 -0.10279,0.0277 -0.146841,0.0407 -0.04406,0.0129 -0.114136,0.0335 -0.155741,0.0456 -0.04161,0.0121 -0.08065,0.022 -0.08677,0.022 -0.01431,-1.4e-4 -0.01438,0.0146 -1.02e-4,0.0235 0.0061,0.003 0.04911,0.0174 0.09567,0.0304 0.246119,0.0686 0.382136,0.1103 0.376143,0.11516 -0.0083,0.007 -0.196273,0.0631 -0.371587,0.11142 -0.04895,0.0135 -0.09701,0.0286 -0.1068,0.0338 -0.01933,0.0101 -0.0065,0.0149 0.16464,0.0637 0.04161,0.0118 0.109688,0.0315 0.151291,0.0436 0.09476,0.0276 0.0955,0.0276 0.186889,0.001 z m 1.14768,-0.33426 c 0.238429,-0.0702 0.24425,-0.079 0.08223,-0.12364 -0.05726,-0.0157 -0.134172,-0.0384 -0.1709,-0.0503 -0.08544,-0.0276 -0.111338,-0.0272 -0.213911,0.003 -0.0463,0.014 -0.130246,0.0385 -0.186536,0.0544 -0.05629,0.0159 -0.106002,0.0323 -0.110473,0.0365 -0.01056,0.0101 0.01451,0.0192 0.177215,0.0663 0.07342,0.0212 0.151514,0.0445 0.17354,0.0517 0.02203,0.007 0.04605,0.0135 0.0534,0.0139 0.0073,4.7e-4 0.09529,-0.0233 0.195434,-0.0528 z"
       id="path856"
       sodipodi:nodetypes="csssssssssssssssssssscssssscccsssscssscccssssssssssssssssssssssssssssssssssssssssssssscsssssssscssssssssssscsssscsscscsssscsssscsscsssssssssssssssssssssscssssssccssssssssss" /><text
       xml:space="preserve"
       style="font-weight:bold;font-size:1.05833px;font-family:'Bitstream Vera Serif';-inkscape-font-specification:'Bitstream Vera Serif Bold';text-align:center;text-anchor:middle;white-space:pre;inline-size:6.05866;display:inline;fill:#141b41;fill-opacity:1;stroke-width:2;stroke-linecap:round;stroke-linejoin:round;stroke-dashoffset:142.11;paint-order:stroke fill markers"
       x="42.888733"
       y="-104.00138"
       id="text18681"
       transform="matrix(0.74255472,0,0,0.74255472,12.185665,-26.439424)"><tspan
         x="42.888733"
         y="-104.00138"
         id="tspan18751">FIDE EDU</tspan></text></g></svg>
